# xmcd
#
# Track frame offsets:
#	150
#	17670
#	37467
#	55510
#	68002
#	83665
#	106177
#	128162
#	155065
#
# Disc length: 2348 seconds
#
# Revision: 0
# Processed by: cddbd v1.4b42PL0 Copyright (c) Steve Scherf et al.
# Submitted via: OrangeCD 4.1
#
DISCID=6e092a09
DTITLE=Detroit Blues Band - Real Live
DYEAR=1900
DGENRE=
TTITLE0=Back On my Feet Again
TTITLE1=My Life Is Ruined
TTITLE2=Luann
TTITLE3=Go Downtown
TTITLE4=She Knows It
TTITLE5=Goin' Back To Memnphis
TTITLE6=Scandalous Behavious
TTITLE7=Walkin Out The Door
TTITLE8=Treat Me Right
EXTD=
EXTT0=
EXTT1=
EXTT2=
EXTT3=
EXTT4=
EXTT5=
EXTT6=
EXTT7=
EXTT8=
PLAYORDER=
